<svg width="991" height="1028" viewBox="0 0 991 1028" fill="none" xmlns="http://www.w3.org/2000/svg">
<g id="logo-vector">
<path id="symbol-dot" d="M989.703 869.468L878.108 861.497L883.042 767.742L980.593 757.493L989.703 869.468Z" fill="#8DCFFB" stroke="#8DCFFB"/>
<path id="letter-r" d="M703.503 661.46L688.699 889.206L838.632 860.358L799.156 649.694L833.318 630.715L854.954 652.351L857.611 684.235L939.599 652.351L955.162 560.114L861.786 519.12L788.528 576.815V532.405L677.312 556.318L703.503 661.46Z" fill="white" stroke="white"/>
<path id="letter-e-bottom" fill-rule="evenodd" clip-rule="evenodd" d="M352.775 760.15L360.366 662.22L411.229 549.106L555.468 516.842L656.435 557.077L677.692 700.936L469.684 744.208L480.312 763.946L675.414 781.786L637.457 894.14L402.12 843.657L352.775 760.15ZM475.378 613.254L463.231 667.913L576.345 646.277L564.958 618.189L475.378 613.254Z" fill="white" stroke="white"/>
<path id="letter-g" fill-rule="evenodd" clip-rule="evenodd" d="M20.2662 794.312L32.4127 595.035L173.235 543.033L216.887 571.88V525.572L358.468 553.281L345.563 645.898L317.474 651.591L355.811 930.959L278.757 1027.37L42.2816 999.662L58.983 885.03L214.609 907.805L228.653 842.518L136.796 865.293L20.2662 794.312ZM136.796 651.591L130.723 745.726L214.609 770.019V664.497L136.796 651.591Z" fill="white" stroke="white"/>
<path id="letter-e-top" fill-rule="evenodd" clip-rule="evenodd" d="M596.462 436.752L690.597 524.813L893.291 487.235L907.335 383.231L716.408 407.904L702.364 383.231L907.335 335.405L886.838 191.166L794.981 153.588L621.894 197.619L596.462 436.752ZM705.78 254.555L696.291 308.455L806.747 283.782L793.842 254.555H705.78Z" fill="white" stroke="white"/>
<g id="letter-o-group">
<path id="letter-o-dot-right" d="M481.831 65.9059L472.721 154.347L559.644 162.698L567.235 73.1178L481.831 65.9059Z" fill="white" stroke="white"/>
<path id="letter-o-dot-left" d="M352.775 81.8481L358.089 172.187L445.391 165.734L439.318 76.1544L352.775 81.8481Z" fill="white" stroke="white"/>
<path id="letter-o-body" fill-rule="evenodd" clip-rule="evenodd" d="M293.561 447.759L330.759 227.605L523.204 189.268L584.696 279.987L573.308 483.439L363.403 527.47L293.561 447.759ZM415.405 288.337L397.565 408.663L489.802 418.911L482.21 293.272L415.405 288.337Z" fill="white" stroke="white"/>
</g>
<path id="letter-f" d="M0.52832 71.9791L33.931 558.216L211.572 492.549L176.272 330.85L299.634 313.769L275.721 202.933L156.154 237.474L140.971 177.122L327.343 162.698L322.409 0.618866L0.52832 71.9791Z" fill="white" stroke="white"/>
</g>
</svg>
